<?xml version="1.0" encoding="utf-8"?>
<!-- Generator: Adobe Illustrator 22.1.0, SVG Export Plug-In . SVG Version: 6.00 Build 0)  -->
<svg version="1.0" id="Ebene_1" xmlns="http://www.w3.org/2000/svg" xmlns:xlink="http://www.w3.org/1999/xlink" x="0px" y="0px"
	 viewBox="0 0 258 72" enable-background="new 0 0 258 72" xml:space="preserve">
<g>
	<path fill="#179C7D" d="M0,41.7c9.9-5.1,24.3-13.3,41.5-25.3v-4C26.4,22.2,11,30.2,0,35.4V41.7z"/>
	<path fill="#179C7D" d="M0,29.7c11-4.5,26.4-11.4,41.5-20.4v-2c-14.2,7-29,11.4-41.5,14.2V29.7z"/>
	<path fill="#179C7D" d="M41.5,41.7V21.4c-9.5,8-18.8,14.9-26.7,20.3C14.8,41.7,41.5,41.7,41.5,41.7z"/>
	<path fill="#179C7D" d="M9.5,41.7C17,37.3,26,31.5,35,24.7c2.1-1.6,4.3-3.2,6.4-4.9v-2.5c-13.4,10-27,18.4-37.6,24.4H9.5z"/>
	<path fill="#179C7D" d="M0,18.5c12.1-2.1,27-6,41.5-12.9V3.4C26.9,10,12.2,12.8,0,13.7V18.5z"/>
	<path fill="#179C7D" d="M0,0v11.6c0.9-0.1,1.8-0.1,2.8-0.2c10.1-0.8,23.9-2.6,38.7-9V0H0z"/>
	<g>
		<g>
			<path fill="#FFFFFF" d="M0,11.6v2.1c12.2-1,26.9-3.8,41.5-10.3v-1c-14.9,6.4-28.6,8.2-38.7,9C1.8,11.5,0.9,11.6,0,11.6z"/>
		</g>
	</g>
	<g>
		<g>
			<path fill="#FFFFFF" d="M0,21.5c12.5-2.8,27.3-7.2,41.5-14.2V5.7C27,12.6,12.1,16.4,0,18.5V21.5z"/>
		</g>
	</g>
	<g>
		<g>
			<path fill="#FFFFFF" d="M0,35.4c11-5.3,26.4-13.2,41.5-23.1V9.2C26.4,18.3,11,25.2,0,29.7V35.4z"/>
		</g>
	</g>
	<g>
		<g>
			<path fill="#FFFFFF" d="M9.5,41.7h5.3c7.9-5.4,17.2-12.3,26.7-20.3v-1.6c-2.2,1.7-4.3,3.3-6.4,4.9C26.1,31.5,17,37.3,9.5,41.7z"
				/>
		</g>
	</g>
	<g>
		<g>
			<path fill="#FFFFFF" d="M0,41.7h3.9c10.6-6,24.3-14.4,37.6-24.4v-1C24.3,28.4,9.9,36.6,0,41.7L0,41.7z"/>
		</g>
	</g>
</g>
<path d="M243.9,41.7h5.3v-7.5c0-2.9,0-8.4,4.3-8.4c1,0,1.9,0.2,2.4,0.4v-5.4c-0.6-0.2-1.1-0.2-1.6-0.2c-3.2,0-5.4,3.2-5.6,5.1h-0.1
	V21h-4.7L243.9,41.7L243.9,41.7z M238.6,36.2c-2,1.1-4.2,2.1-6.8,2.1c-3.3,0-5.6-1.9-5.9-5.2h14.2c0-7.2-2.1-12.4-9.8-12.4
	c-6.4,0-9.5,4.9-9.5,10.8c0,6.7,3.9,10.6,10.7,10.6c2.9,0,5.1-0.6,7.1-1.6V36.2L238.6,36.2z M225.9,29.4c0.2-2.8,1.8-4.8,4.7-4.8
	s4.2,2.2,4.3,4.8C234.9,29.4,225.9,29.4,225.9,29.4z M208.9,41.7h5.3V25.1h4.7v-3.9h-4.7v-2.6c0-1.6,0.6-3.1,2.4-3.1
	c1.2,0,1.8,0.4,2.3,0.7l0.4-4.4c-1-0.2-2.5-0.4-3.9-0.4c-4.2,0-6.5,2.9-6.5,7v2.9H205v3.9h3.9V41.7L208.9,41.7z M187.6,30.9
	c0-3.1,1.7-6.1,5.1-6.1c3.5,0,5.2,3,5.2,6.1c0,3.4-1.1,7.1-5.2,7.1C188.7,38,187.6,34.3,187.6,30.9 M182,31.6
	c0,5.9,3.9,10.6,10.7,10.6s10.8-4.7,10.8-10.6c0-6.8-4.7-10.9-10.8-10.9C186.7,20.7,182,24.8,182,31.6 M159.8,41.7h5.3v-10
	c0-2.6,0.8-6.8,4.7-6.8c3.4,0,3.5,3.4,3.5,5.9v11h5.3v-13c0-4.6-2.1-8-7-8c-2.8,0-5.1,1.3-6.4,3.3h-0.1V11.8h-5.3V41.7z M135.5,41.7
	h5.3v-10c0-2.6,0.8-6.8,4.7-6.8c3.4,0,3.5,3.4,3.5,5.9v11h5.3v-13c0-4.6-2.1-8-7-8c-2.8,0-5.1,0.9-6.7,3.3h-0.1v-2.8h-5.1v20.4
	H135.5z M130,21.2h-5.3v10c0,2.6-0.8,6.8-4.7,6.8c-3.4,0-3.5-3.4-3.5-5.9v-11h-5.3V34c0,4.6,2.1,8,7,8c2.8,0,5.1-1.3,6.7-3.3h0.1
	v2.8h5.1L130,21.2L130,21.2z M93.5,35.8c0-3.2,3.5-3.5,5.9-3.5h2.3c0,1.6-0.2,3.1-1.1,4.2c-0.8,1.1-2.1,1.8-3.7,1.8
	C95,38.3,93.5,37.5,93.5,35.8 M90.8,26.8c1.8-1.4,4.1-2.2,6.3-2.2c3.1,0,4.6,1.1,4.6,4.4h-2.9c-2.2,0-4.9,0.2-6.9,1.2
	s-3.5,2.8-3.5,5.9c0,3.9,3.5,6.1,7.2,6.1c2.4,0,5.1-1.3,6.3-3.5h0.1c0,0.6,0,2,0.2,3.1h4.7c-0.1-1.6-0.2-3-0.2-4.6
	c0-1.5-0.1-3.1-0.1-5.1v-2.6c0-6.1-2.6-8.6-8.8-8.6c-2.3,0-5.1,0.6-7.1,1.6L90.8,26.8z M74.8,41.7h5.3v-7.5c0-2.9,0-8.4,4.3-8.4
	c1,0,1.9,0.2,2.4,0.4v-5.4c-0.6-0.2-1.1-0.2-1.6-0.2c-3.2,0-5.4,3.2-5.6,5.1h-0.1V21h-4.7L74.8,41.7L74.8,41.7z M55.5,41.7h5.6V29.5
	h9.4v-4.4h-9.4v-6.9H71v-4.4H55.5V41.7z"/>
<g>
	<path d="M219.442,57.945c-0.232,0-0.463,0.027-0.693,0.08c-0.245,0.053-0.477,0.152-0.695,0.298
		c-0.205,0.134-0.379,0.332-0.52,0.598c-0.141,0.252-0.209,0.571-0.209,0.956c0,0.292,0.089,0.537,0.268,0.737
		c0.18,0.2,0.406,0.379,0.674,0.538c0.297,0.16,0.618,0.305,0.962,0.439c0.336,0.145,0.688,0.299,1.06,0.458
		c0.373,0.145,0.732,0.319,1.078,0.517c0.359,0.213,0.674,0.472,0.943,0.777c0.27,0.292,0.494,0.645,0.674,1.057
		c0.153,0.426,0.23,0.937,0.23,1.535c-0.025,1.501-0.518,2.577-1.483,3.227c-0.962,0.651-2.148,0.977-3.561,0.977
		c-0.693,0-1.277-0.053-1.752-0.16c-0.487-0.092-1.053-0.219-1.694-0.377l0.251-2.511c0.948,0.558,1.964,0.844,3.042,0.857
		c0.549,0,1.085-0.147,1.597-0.44c0.514-0.29,0.775-0.743,0.79-1.354c0-0.332-0.077-0.618-0.23-0.857
		c-0.183-0.24-0.406-0.439-0.676-0.597c-0.589-0.319-1.263-0.624-2.02-0.917c-0.373-0.161-0.726-0.345-1.06-0.559
		c-0.346-0.199-0.668-0.438-0.962-0.716c-0.27-0.292-0.494-0.645-0.674-1.056c-0.18-0.412-0.27-0.898-0.27-1.455
		c0.027-1.541,0.52-2.644,1.481-3.308c0.927-0.624,1.997-0.937,3.216-0.937c1.155,0,2.227,0.168,3.214,0.5l-0.249,2.289
		C221.315,58.157,220.404,57.959,219.442,57.945z"/>
	<path d="M235.825,69.699c-1,0.279-2.02,0.426-3.061,0.439c-2.206,0-3.971-0.579-5.294-1.733c-1.375-1.13-2.065-2.87-2.08-5.221
		c0.091-4.901,2.549-7.377,7.374-7.432c0.962,0,1.978,0.194,3.042,0.579l-0.193,2.351c-0.5-0.291-0.987-0.498-1.462-0.617
		c-0.477-0.08-0.956-0.119-1.443-0.119c-1.4,0.013-2.493,0.49-3.274,1.434c-0.821,0.943-1.232,2.145-1.232,3.606
		c0,1.447,0.404,2.623,1.213,3.526c0.794,0.943,1.912,1.421,3.349,1.435c0.552,0,1.103-0.06,1.655-0.179
		c0.539-0.107,0.971-0.24,1.29-0.399L235.825,69.699z"/>
	<path d="M242.622,55.992h3.04l5.276,13.906h-2.984l-1.155-3.187h-5.448l-1.174,3.187h-2.793L242.622,55.992z M244.103,58.781
		h-0.037l-1.945,5.739h3.928L244.103,58.781z"/>
	<path d="M253.304,55.992H256v13.906h-2.696V55.992z"/>
</g>
</svg>
